<?xml version="1.0" standalone="no"?><!DOCTYPE svg PUBLIC "-//W3C//DTD SVG 1.1//EN" "http://www.w3.org/Graphics/SVG/1.1/DTD/svg11.dtd"><svg t="1738226454226" class="icon" viewBox="0 0 1024 1024" version="1.1" xmlns="http://www.w3.org/2000/svg" p-id="3364" xmlns:xlink="http://www.w3.org/1999/xlink" width="200" height="200"><path d="M488.043 63c131.533 0 238.161 106.626 238.161 238.156 0 87.537-47.229 164.043-117.596 205.428 20.952 6.56 41.381 14.894 61.129 24.927 14.729 7.483 20.603 25.49 13.12 40.218-7.484 14.728-25.491 20.602-40.22 13.119-46.9-23.829-98.182-36.333-151.142-36.333-194.499 0-353.46 169.162-356.62 380.165l-0.047 6.407c0 16.52-13.393 29.913-29.914 29.913S75 951.607 75 935.087c0-200.893 123.95-371.307 294.917-427.103l0.002 0.017c-71.714-41.04-120.037-118.3-120.037-206.845C249.882 169.626 356.51 63 488.043 63z m133.57 771.992c16.521 0 29.914 13.393 29.914 29.914 0 16.284-13.013 29.53-29.207 29.905l-0.707 0.008h-66.73c-16.522 0-29.915-13.393-29.915-29.913 0-16.285 13.013-29.53 29.208-29.905l0.706-0.009h66.731z m279.473 0c16.521 0 29.914 13.393 29.914 29.914 0 16.284-13.013 29.53-29.208 29.905l-0.706 0.008H719.301c-16.521 0-29.914-13.393-29.914-29.913 0-16.285 13.013-29.53 29.208-29.905l0.706-0.009h181.785zM621.613 672.77c16.521 0 29.914 13.393 29.914 29.914 0 16.284-13.013 29.53-29.207 29.905l-0.707 0.008h-66.73c-16.522 0-29.915-13.393-29.915-29.913 0-16.285 13.013-29.53 29.208-29.905l0.706-0.009h66.731z m279.473 0c16.521 0 29.914 13.393 29.914 29.914 0 16.284-13.013 29.53-29.208 29.905l-0.706 0.008H719.301c-16.521 0-29.914-13.393-29.914-29.913 0-16.285 13.013-29.53 29.208-29.905l0.706-0.009h181.785zM488.043 122.827c-98.49 0-178.333 79.84-178.333 178.329 0 98.488 79.842 178.329 178.333 178.329 98.49 0 178.333-79.841 178.333-178.33 0-98.488-79.842-178.328-178.333-178.328z" p-id="3365"></path></svg>