<?xml version="1.0" standalone="no"?><!DOCTYPE svg PUBLIC "-//W3C//DTD SVG 1.1//EN" "http://www.w3.org/Graphics/SVG/1.1/DTD/svg11.dtd"><svg t="1738226538487" class="icon" viewBox="0 0 1024 1024" version="1.1" xmlns="http://www.w3.org/2000/svg" p-id="7210" xmlns:xlink="http://www.w3.org/1999/xlink" width="200" height="200"><path d="M516.352 448c-123.562667 0-224-100.48-224-224S392.789333 0 516.352 0s224.042667 100.48 224.042667 224-100.522667 224-224.042667 224z m0-362.666667c-76.458667 0-138.666667 62.208-138.666667 138.666667s62.208 138.666667 138.666667 138.666667c76.501333 0 138.709333-62.208 138.709333-138.666667S592.853333 85.333333 516.352 85.333333zM930.986667 1024h-85.333334c0-233.130667-147.754667-422.784-329.344-422.784S187.008 790.869333 187.008 1024h-85.333333c0-280.149333 186.026667-508.117333 414.677333-508.117333 228.650667 0 414.634667 227.968 414.634667 508.117333z" p-id="7211"></path></svg>